<mxfile host="app.diagrams.net" modified="2022-01-21T00:27:15.541Z" agent="5.0 (X11; Linux x86_64) AppleWebKit/537.36 (KHTML, like Gecko) Chrome/97.0.4692.71 Safari/537.36" etag="FmmM7_g5daYbsP8hihbg" version="15.8.3" type="github">
  <diagram id="WNFBw1H8d2t1laV2bld6" name="Page-1">
    <mxGraphModel dx="1214" dy="590" grid="0" gridSize="10" guides="1" tooltips="1" connect="1" arrows="1" fold="1" page="1" pageScale="1" pageWidth="1654" pageHeight="2336" math="0" shadow="0">
      <root>
        <mxCell id="0" />
        <mxCell id="1" parent="0" />
        <mxCell id="d9asvK5_hug1bsuVLp2q-8" value="" style="group" vertex="1" connectable="0" parent="1">
          <mxGeometry x="414" y="30" width="140" height="140" as="geometry" />
        </mxCell>
        <mxCell id="d9asvK5_hug1bsuVLp2q-2" value="" style="ellipse;whiteSpace=wrap;html=1;aspect=fixed;" vertex="1" parent="d9asvK5_hug1bsuVLp2q-8">
          <mxGeometry width="140" height="140" as="geometry" />
        </mxCell>
        <mxCell id="d9asvK5_hug1bsuVLp2q-4" style="edgeStyle=orthogonalEdgeStyle;rounded=0;orthogonalLoop=1;jettySize=auto;html=1;exitX=0.5;exitY=0;exitDx=0;exitDy=0;entryX=0.5;entryY=0;entryDx=0;entryDy=0;endArrow=none;endFill=0;" edge="1" parent="d9asvK5_hug1bsuVLp2q-8" source="d9asvK5_hug1bsuVLp2q-3" target="d9asvK5_hug1bsuVLp2q-2">
          <mxGeometry relative="1" as="geometry" />
        </mxCell>
        <mxCell id="d9asvK5_hug1bsuVLp2q-5" style="edgeStyle=orthogonalEdgeStyle;rounded=0;orthogonalLoop=1;jettySize=auto;html=1;exitX=1;exitY=0.5;exitDx=0;exitDy=0;endArrow=none;endFill=0;" edge="1" parent="d9asvK5_hug1bsuVLp2q-8" source="d9asvK5_hug1bsuVLp2q-3">
          <mxGeometry relative="1" as="geometry">
            <mxPoint x="140" y="70" as="targetPoint" />
          </mxGeometry>
        </mxCell>
        <mxCell id="d9asvK5_hug1bsuVLp2q-6" style="edgeStyle=orthogonalEdgeStyle;rounded=0;orthogonalLoop=1;jettySize=auto;html=1;exitX=0.5;exitY=1;exitDx=0;exitDy=0;entryX=0.5;entryY=1;entryDx=0;entryDy=0;endArrow=none;endFill=0;" edge="1" parent="d9asvK5_hug1bsuVLp2q-8" source="d9asvK5_hug1bsuVLp2q-3" target="d9asvK5_hug1bsuVLp2q-2">
          <mxGeometry relative="1" as="geometry" />
        </mxCell>
        <mxCell id="d9asvK5_hug1bsuVLp2q-7" style="edgeStyle=orthogonalEdgeStyle;rounded=0;orthogonalLoop=1;jettySize=auto;html=1;exitX=0;exitY=0.5;exitDx=0;exitDy=0;entryX=0;entryY=0.5;entryDx=0;entryDy=0;endArrow=none;endFill=0;" edge="1" parent="d9asvK5_hug1bsuVLp2q-8" source="d9asvK5_hug1bsuVLp2q-3" target="d9asvK5_hug1bsuVLp2q-2">
          <mxGeometry relative="1" as="geometry" />
        </mxCell>
        <mxCell id="d9asvK5_hug1bsuVLp2q-3" value="" style="ellipse;whiteSpace=wrap;html=1;aspect=fixed;" vertex="1" parent="d9asvK5_hug1bsuVLp2q-8">
          <mxGeometry x="25" y="25" width="90" height="90" as="geometry" />
        </mxCell>
        <mxCell id="d9asvK5_hug1bsuVLp2q-17" value="" style="group;fillColor=#CCFF99;" vertex="1" connectable="0" parent="1">
          <mxGeometry x="30" y="260" width="880" height="60" as="geometry" />
        </mxCell>
        <mxCell id="d9asvK5_hug1bsuVLp2q-9" value="log block" style="rounded=0;whiteSpace=wrap;html=1;fillColor=#EAFF2B;" vertex="1" parent="d9asvK5_hug1bsuVLp2q-17">
          <mxGeometry width="110" height="60" as="geometry" />
        </mxCell>
        <mxCell id="d9asvK5_hug1bsuVLp2q-10" value="&lt;span&gt;log block&lt;/span&gt;" style="rounded=0;whiteSpace=wrap;html=1;fillColor=#EAFF2B;" vertex="1" parent="d9asvK5_hug1bsuVLp2q-17">
          <mxGeometry x="110" width="110" height="60" as="geometry" />
        </mxCell>
        <mxCell id="d9asvK5_hug1bsuVLp2q-11" value="&lt;span style=&quot;font-weight: 400&quot;&gt;log block&lt;/span&gt;" style="rounded=0;whiteSpace=wrap;html=1;fillColor=#EAFF2B;fontStyle=1" vertex="1" parent="d9asvK5_hug1bsuVLp2q-17">
          <mxGeometry x="330" width="110" height="60" as="geometry" />
        </mxCell>
        <mxCell id="d9asvK5_hug1bsuVLp2q-12" value="&lt;span&gt;log block&lt;/span&gt;" style="rounded=0;whiteSpace=wrap;html=1;fillColor=#EAFF2B;" vertex="1" parent="d9asvK5_hug1bsuVLp2q-17">
          <mxGeometry x="220" width="110" height="60" as="geometry" />
        </mxCell>
        <mxCell id="d9asvK5_hug1bsuVLp2q-13" value="&lt;span&gt;log block&lt;/span&gt;" style="rounded=0;whiteSpace=wrap;html=1;fillColor=#CCFF99;" vertex="1" parent="d9asvK5_hug1bsuVLp2q-17">
          <mxGeometry x="440" width="110" height="60" as="geometry" />
        </mxCell>
        <mxCell id="d9asvK5_hug1bsuVLp2q-14" value="&lt;span&gt;log block&lt;/span&gt;" style="rounded=0;whiteSpace=wrap;html=1;fillColor=#CCFF99;" vertex="1" parent="d9asvK5_hug1bsuVLp2q-17">
          <mxGeometry x="550" width="110" height="60" as="geometry" />
        </mxCell>
        <mxCell id="d9asvK5_hug1bsuVLp2q-15" value="..." style="rounded=0;whiteSpace=wrap;html=1;fillColor=#CCFF99;fontStyle=1" vertex="1" parent="d9asvK5_hug1bsuVLp2q-17">
          <mxGeometry x="770" width="110" height="60" as="geometry" />
        </mxCell>
        <mxCell id="d9asvK5_hug1bsuVLp2q-16" value="&lt;span&gt;log block&lt;/span&gt;" style="rounded=0;whiteSpace=wrap;html=1;fillColor=#CCFF99;" vertex="1" parent="d9asvK5_hug1bsuVLp2q-17">
          <mxGeometry x="660" width="110" height="60" as="geometry" />
        </mxCell>
        <mxCell id="d9asvK5_hug1bsuVLp2q-18" style="edgeStyle=orthogonalEdgeStyle;rounded=1;orthogonalLoop=1;jettySize=auto;html=1;exitX=0;exitY=1;exitDx=0;exitDy=0;entryX=0.5;entryY=0;entryDx=0;entryDy=0;endArrow=classic;endFill=1;" edge="1" parent="1" source="d9asvK5_hug1bsuVLp2q-2" target="d9asvK5_hug1bsuVLp2q-19">
          <mxGeometry relative="1" as="geometry" />
        </mxCell>
        <mxCell id="d9asvK5_hug1bsuVLp2q-19" value="log file" style="text;html=1;strokeColor=none;fillColor=none;align=center;verticalAlign=middle;whiteSpace=wrap;rounded=0;fontSize=20;fontStyle=1" vertex="1" parent="1">
          <mxGeometry x="464" y="220" width="90" height="35" as="geometry" />
        </mxCell>
        <mxCell id="d9asvK5_hug1bsuVLp2q-24" value="log group" style="rounded=0;whiteSpace=wrap;html=1;fontSize=14;fillColor=#EAFF2B;" vertex="1" parent="1">
          <mxGeometry x="36" y="564" width="104" height="66" as="geometry" />
        </mxCell>
        <mxCell id="d9asvK5_hug1bsuVLp2q-25" value="&lt;font style=&quot;font-size: 14px&quot;&gt;LSN of start data&lt;/font&gt;" style="rounded=0;whiteSpace=wrap;html=1;fontSize=20;fillColor=#EAFF2B;" vertex="1" parent="1">
          <mxGeometry x="139" y="564" width="181" height="66" as="geometry" />
        </mxCell>
        <mxCell id="d9asvK5_hug1bsuVLp2q-26" value="first checkpoint field" style="rounded=0;whiteSpace=wrap;html=1;fontSize=12;fillColor=#EAFF2B;" vertex="1" parent="1">
          <mxGeometry x="312" y="564" width="148" height="66" as="geometry" />
        </mxCell>
        <mxCell id="d9asvK5_hug1bsuVLp2q-27" value="second checkpoint field" style="rounded=0;whiteSpace=wrap;html=1;fontSize=12;fillColor=#EAFF2B;" vertex="1" parent="1">
          <mxGeometry x="460" y="564" width="150" height="66" as="geometry" />
        </mxCell>
        <mxCell id="d9asvK5_hug1bsuVLp2q-28" value="log file header&amp;nbsp;" style="text;html=1;strokeColor=none;fillColor=none;align=center;verticalAlign=middle;whiteSpace=wrap;rounded=0;fontSize=20;fontStyle=1" vertex="1" parent="1">
          <mxGeometry x="36" y="523" width="180" height="32" as="geometry" />
        </mxCell>
        <mxCell id="d9asvK5_hug1bsuVLp2q-38" value="&lt;span&gt;log block number&lt;/span&gt;" style="rounded=0;whiteSpace=wrap;html=1;fillColor=#CCFF99;" vertex="1" parent="1">
          <mxGeometry x="634" y="562.74" width="110" height="60" as="geometry" />
        </mxCell>
        <mxCell id="d9asvK5_hug1bsuVLp2q-39" value="bytes number" style="rounded=0;whiteSpace=wrap;html=1;fillColor=#CCFF99;" vertex="1" parent="1">
          <mxGeometry x="744" y="562.74" width="80" height="60" as="geometry" />
        </mxCell>
        <mxCell id="d9asvK5_hug1bsuVLp2q-70" style="edgeStyle=orthogonalEdgeStyle;rounded=1;orthogonalLoop=1;jettySize=auto;html=1;exitX=0.75;exitY=1;exitDx=0;exitDy=0;fontSize=12;endArrow=classic;endFill=1;entryX=0;entryY=0;entryDx=0;entryDy=0;entryPerimeter=0;" edge="1" parent="1" source="d9asvK5_hug1bsuVLp2q-40" target="d9asvK5_hug1bsuVLp2q-71">
          <mxGeometry relative="1" as="geometry">
            <mxPoint x="973.5" y="774" as="targetPoint" />
          </mxGeometry>
        </mxCell>
        <mxCell id="d9asvK5_hug1bsuVLp2q-40" value="&lt;span&gt;offset&lt;/span&gt;" style="rounded=0;whiteSpace=wrap;html=1;fillColor=#CCFF99;" vertex="1" parent="1">
          <mxGeometry x="822" y="562.74" width="92" height="60.26" as="geometry" />
        </mxCell>
        <mxCell id="d9asvK5_hug1bsuVLp2q-41" value="&lt;span&gt;checkpoint number&lt;/span&gt;" style="rounded=0;whiteSpace=wrap;html=1;fillColor=#CCFF99;" vertex="1" parent="1">
          <mxGeometry x="914" y="562.74" width="110" height="60" as="geometry" />
        </mxCell>
        <mxCell id="d9asvK5_hug1bsuVLp2q-42" value="&lt;span&gt;block checksum&lt;/span&gt;" style="rounded=0;whiteSpace=wrap;html=1;fillColor=#CCFF99;" vertex="1" parent="1">
          <mxGeometry x="1024" y="562.74" width="120" height="60" as="geometry" />
        </mxCell>
        <mxCell id="d9asvK5_hug1bsuVLp2q-45" value="" style="group" vertex="1" connectable="0" parent="1">
          <mxGeometry x="30" y="325" width="546" height="54" as="geometry" />
        </mxCell>
        <mxCell id="d9asvK5_hug1bsuVLp2q-20" value="" style="shape=curlyBracket;whiteSpace=wrap;html=1;rounded=1;fontSize=20;fillColor=#EAFF2B;rotation=-90;" vertex="1" parent="d9asvK5_hug1bsuVLp2q-45">
          <mxGeometry x="208" y="-208" width="24" height="440" as="geometry" />
        </mxCell>
        <mxCell id="d9asvK5_hug1bsuVLp2q-22" value="log file header = 4 log blocks&amp;nbsp;" style="text;html=1;strokeColor=none;fillColor=none;align=center;verticalAlign=middle;whiteSpace=wrap;rounded=0;fontSize=20;" vertex="1" parent="d9asvK5_hug1bsuVLp2q-45">
          <mxGeometry x="83" y="26" width="274" height="26" as="geometry" />
        </mxCell>
        <mxCell id="d9asvK5_hug1bsuVLp2q-73" value="(4*OS_FILE_LOG_BLOCK_SIZE)" style="text;whiteSpace=wrap;html=1;fontSize=12;" vertex="1" parent="d9asvK5_hug1bsuVLp2q-45">
          <mxGeometry x="352" y="26" width="194" height="28" as="geometry" />
        </mxCell>
        <mxCell id="d9asvK5_hug1bsuVLp2q-46" value="" style="group" vertex="1" connectable="0" parent="1">
          <mxGeometry x="72" y="810" width="640" height="210" as="geometry" />
        </mxCell>
        <mxCell id="d9asvK5_hug1bsuVLp2q-48" value="header" style="text;html=1;strokeColor=none;fillColor=none;align=center;verticalAlign=middle;whiteSpace=wrap;rounded=0;fontSize=20;" vertex="1" parent="d9asvK5_hug1bsuVLp2q-46">
          <mxGeometry x="650.0227272727273" y="-141.32791735929706" width="217.95454545454547" height="25.93208264070292" as="geometry" />
        </mxCell>
        <mxCell id="d9asvK5_hug1bsuVLp2q-56" value="4 bytes" style="text;html=1;strokeColor=none;fillColor=none;align=center;verticalAlign=middle;whiteSpace=wrap;rounded=0;fontSize=12;" vertex="1" parent="d9asvK5_hug1bsuVLp2q-46">
          <mxGeometry x="580" y="-192" width="60" height="30" as="geometry" />
        </mxCell>
        <mxCell id="d9asvK5_hug1bsuVLp2q-49" value="" style="shape=curlyBracket;whiteSpace=wrap;html=1;rounded=1;fontSize=20;fillColor=#EAFF2B;rotation=-90;" vertex="1" parent="1">
          <mxGeometry x="1076.35" y="593" width="18.3" height="114" as="geometry" />
        </mxCell>
        <mxCell id="d9asvK5_hug1bsuVLp2q-50" value="footer" style="text;html=1;strokeColor=none;fillColor=none;align=center;verticalAlign=middle;whiteSpace=wrap;rounded=0;fontSize=20;" vertex="1" parent="1">
          <mxGeometry x="976.5227272727273" y="656.742082640703" width="217.95454545454547" height="25.93208264070292" as="geometry" />
        </mxCell>
        <mxCell id="d9asvK5_hug1bsuVLp2q-51" value="simple log block" style="text;html=1;strokeColor=none;fillColor=none;align=center;verticalAlign=middle;whiteSpace=wrap;rounded=0;fontSize=20;fontStyle=1" vertex="1" parent="1">
          <mxGeometry x="803" y="525.74" width="180" height="32" as="geometry" />
        </mxCell>
        <mxCell id="d9asvK5_hug1bsuVLp2q-53" style="edgeStyle=orthogonalEdgeStyle;rounded=1;orthogonalLoop=1;jettySize=auto;html=1;exitX=0.5;exitY=1;exitDx=0;exitDy=0;entryX=0.5;entryY=0;entryDx=0;entryDy=0;fontSize=12;endArrow=classic;endFill=1;" edge="1" parent="1" source="d9asvK5_hug1bsuVLp2q-16" target="d9asvK5_hug1bsuVLp2q-51">
          <mxGeometry relative="1" as="geometry" />
        </mxCell>
        <mxCell id="d9asvK5_hug1bsuVLp2q-54" value="4 bytes" style="text;html=1;strokeColor=none;fillColor=none;align=center;verticalAlign=middle;whiteSpace=wrap;rounded=0;fontSize=12;" vertex="1" parent="1">
          <mxGeometry x="52" y="635" width="60" height="30" as="geometry" />
        </mxCell>
        <mxCell id="d9asvK5_hug1bsuVLp2q-55" value="8 bytes" style="text;html=1;strokeColor=none;fillColor=none;align=center;verticalAlign=middle;whiteSpace=wrap;rounded=0;fontSize=12;" vertex="1" parent="1">
          <mxGeometry x="195" y="635" width="60" height="30" as="geometry" />
        </mxCell>
        <mxCell id="d9asvK5_hug1bsuVLp2q-47" value="" style="shape=curlyBracket;whiteSpace=wrap;html=1;rounded=1;fontSize=20;fillColor=#EAFF2B;rotation=-90;" vertex="1" parent="1">
          <mxGeometry x="819" y="456" width="18.3" height="389.48" as="geometry" />
        </mxCell>
        <mxCell id="d9asvK5_hug1bsuVLp2q-57" value="2 bytes" style="text;html=1;strokeColor=none;fillColor=none;align=center;verticalAlign=middle;whiteSpace=wrap;rounded=0;fontSize=12;" vertex="1" parent="1">
          <mxGeometry x="754" y="618" width="60" height="30" as="geometry" />
        </mxCell>
        <mxCell id="d9asvK5_hug1bsuVLp2q-58" value="log file 1" style="text;html=1;strokeColor=none;fillColor=none;align=center;verticalAlign=middle;whiteSpace=wrap;rounded=0;fontSize=12;" vertex="1" parent="1">
          <mxGeometry x="368" y="128" width="60" height="30" as="geometry" />
        </mxCell>
        <mxCell id="d9asvK5_hug1bsuVLp2q-61" value="log file 2" style="text;html=1;strokeColor=none;fillColor=none;align=center;verticalAlign=middle;whiteSpace=wrap;rounded=0;fontSize=12;" vertex="1" parent="1">
          <mxGeometry x="544" y="135" width="60" height="30" as="geometry" />
        </mxCell>
        <mxCell id="d9asvK5_hug1bsuVLp2q-62" value="log file 3" style="text;html=1;strokeColor=none;fillColor=none;align=center;verticalAlign=middle;whiteSpace=wrap;rounded=0;fontSize=12;" vertex="1" parent="1">
          <mxGeometry x="533" y="33" width="60" height="30" as="geometry" />
        </mxCell>
        <mxCell id="d9asvK5_hug1bsuVLp2q-63" value="log file 4" style="text;html=1;strokeColor=none;fillColor=none;align=center;verticalAlign=middle;whiteSpace=wrap;rounded=0;fontSize=12;" vertex="1" parent="1">
          <mxGeometry x="371" y="35" width="60" height="30" as="geometry" />
        </mxCell>
        <mxCell id="d9asvK5_hug1bsuVLp2q-64" value="redo log变量" style="swimlane;fontStyle=0;childLayout=stackLayout;horizontal=1;startSize=30;horizontalStack=0;resizeParent=1;resizeParentMax=0;resizeLast=0;collapsible=1;marginBottom=0;fontSize=12;fillColor=#EAFF2B;" vertex="1" parent="1">
          <mxGeometry x="176" y="38" width="161" height="90" as="geometry" />
        </mxCell>
        <mxCell id="d9asvK5_hug1bsuVLp2q-65" value="innodb_log_file_size" style="text;strokeColor=none;fillColor=none;align=left;verticalAlign=middle;spacingLeft=4;spacingRight=4;overflow=hidden;points=[[0,0.5],[1,0.5]];portConstraint=eastwest;rotatable=0;fontSize=12;" vertex="1" parent="d9asvK5_hug1bsuVLp2q-64">
          <mxGeometry y="30" width="161" height="30" as="geometry" />
        </mxCell>
        <mxCell id="d9asvK5_hug1bsuVLp2q-66" value="innodb_log_files_in_group" style="text;strokeColor=none;fillColor=none;align=left;verticalAlign=middle;spacingLeft=4;spacingRight=4;overflow=hidden;points=[[0,0.5],[1,0.5]];portConstraint=eastwest;rotatable=0;fontSize=12;" vertex="1" parent="d9asvK5_hug1bsuVLp2q-64">
          <mxGeometry y="60" width="161" height="30" as="geometry" />
        </mxCell>
        <mxCell id="d9asvK5_hug1bsuVLp2q-68" value="LOG_BLOCK_HDR_SIZE(12 bytes)" style="text;whiteSpace=wrap;html=1;fontSize=12;" vertex="1" parent="1">
          <mxGeometry x="732" y="699" width="199" height="28" as="geometry" />
        </mxCell>
        <mxCell id="d9asvK5_hug1bsuVLp2q-69" value="LOG_BLOCK_TRL_SIZE(4 bytes)" style="text;html=1;align=center;verticalAlign=middle;resizable=0;points=[];autosize=1;strokeColor=none;fillColor=none;fontSize=12;" vertex="1" parent="1">
          <mxGeometry x="989.5" y="704" width="192" height="18" as="geometry" />
        </mxCell>
        <mxCell id="d9asvK5_hug1bsuVLp2q-71" value="Offset of the first start of an mtr log record group in this log block or 0 if none" style="shape=note;whiteSpace=wrap;html=1;backgroundOutline=1;darkOpacity=0.05;fontSize=12;fillColor=#EAFF2B;" vertex="1" parent="1">
          <mxGeometry x="953" y="779" width="157" height="104" as="geometry" />
        </mxCell>
        <mxCell id="d9asvK5_hug1bsuVLp2q-72" value="OS_FILE_LOG_BLOCK_SIZE(512 bytes)" style="text;whiteSpace=wrap;html=1;fontSize=12;" vertex="1" parent="1">
          <mxGeometry x="554" y="223.25" width="231" height="28.5" as="geometry" />
        </mxCell>
        <mxCell id="d9asvK5_hug1bsuVLp2q-75" style="edgeStyle=orthogonalEdgeStyle;rounded=1;orthogonalLoop=1;jettySize=auto;html=1;exitX=0.25;exitY=1;exitDx=0;exitDy=0;entryX=0.5;entryY=0;entryDx=0;entryDy=0;fontSize=12;endArrow=classic;endFill=1;" edge="1" parent="1" source="d9asvK5_hug1bsuVLp2q-22" target="d9asvK5_hug1bsuVLp2q-28">
          <mxGeometry relative="1" as="geometry" />
        </mxCell>
      </root>
    </mxGraphModel>
  </diagram>
</mxfile>
